<svg width="700" height="760" viewBox="0 0 700 760" fill="none" xmlns="http://www.w3.org/2000/svg">
  <path d="M314 34L360 58L390 96L438 112L466 154L516 188L508 238L534 288L512 340L528 398L488 434L454 432L418 454L390 498L350 524L318 574L278 570L244 532L204 498L164 470L144 422L158 372L136 334L144 278L186 244L196 198L232 176L256 134L300 108L302 74L314 34Z" fill="#f97316"/>
  <path d="M300 108L332 148L372 166L406 206L414 252L398 296L364 326L324 334L294 362L270 406L234 428L200 422L180 388L184 344L206 316L224 270L260 252L282 222L296 182L300 108Z" fill="#ff8a3a"/>
  <path d="M350 524L382 558L418 602L404 644L364 668L326 646L310 606L318 574L350 524Z" fill="#ff8a3a"/>
  <path d="M478 186L544 202L570 236L550 278L510 272L478 186Z" fill="#f97316"/>
</svg>
